<svg width="1440" height="1199" viewBox="0 0 1440 1199" fill="none" xmlns="http://www.w3.org/2000/svg">
<path fill-rule="evenodd" clip-rule="evenodd" d="M-378.281 774.986C-292.361 532.956 33.2695 441.822 297.183 412.008C523.654 386.423 721.294 679.638 941.41 625.899C1315.51 534.566 1522.9 -137.059 1880.52 25.4534C2207.49 174.036 1793.64 695.721 1849.81 1038.7C1885.03 1253.69 2143.69 1402.73 2141.53 1619.06C2139.3 1842.19 1950.8 2003.88 1838.25 2194.51C1693.83 2439.12 1679.77 2870.7 1386.88 2897.28C1073.41 2925.74 973.851 2387.54 667.466 2300.78C339.984 2208.04 -77.8991 2659.17 -313.547 2415.74C-542.118 2179.62 -81.5082 1832.16 -94.0567 1514.1C-104.523 1248.83 -466.244 1022.77 -378.281 774.986Z" fill="#0A3F4D"/>
</svg>
