<svg width="2534" height="2899" viewBox="0 0 2534 2899" fill="none" xmlns="http://www.w3.org/2000/svg">
<path fill-rule="evenodd" clip-rule="evenodd" d="M13.7738 774.979C99.6935 532.949 425.324 441.815 689.238 412.001C915.709 386.416 1113.35 679.631 1333.46 625.892C1707.57 534.56 1914.95 -137.066 2272.58 25.4465C2599.55 174.029 2185.69 695.714 2241.87 1038.69C2277.08 1253.68 2535.75 1402.73 2533.58 1619.06C2531.35 1842.18 2342.85 2003.88 2230.31 2194.5C2085.89 2439.12 2071.83 2870.69 1778.94 2897.28C1465.47 2925.73 1365.91 2387.54 1059.52 2300.77C732.039 2208.03 314.156 2659.16 78.5078 2415.73C-150.063 2179.61 310.547 1832.15 297.998 1514.1C287.532 1248.83 -74.1897 1022.77 13.7738 774.979Z" fill="#0A3F4D"/>
</svg>
