<svg width="50" height="51" viewBox="0 0 50 51" fill="none" xmlns="http://www.w3.org/2000/svg">
<path d="M41.7251 24.0271C40.3001 23.6521 38.6251 23.4521 36.6251 23.4521C33.8501 23.4521 32.8251 24.1272 31.4001 25.2022C31.3251 25.2522 31.2501 25.3272 31.1751 25.4022L28.8001 27.9272C26.8251 30.0522 23.2001 30.0522 21.2001 27.9272L18.8252 25.4272C18.7502 25.3272 18.6752 25.2522 18.6002 25.2022C17.1502 24.1272 16.1252 23.4521 13.3752 23.4521C11.3752 23.4521 9.70018 23.6271 8.27518 24.0271C2.32519 25.6272 2.3252 30.3522 2.3252 34.5022V36.8272C2.3252 43.1022 2.32519 50.2022 15.7002 50.2022H34.3001C43.1751 50.2022 47.6751 45.7022 47.6751 36.8272V34.5022C47.6751 30.3522 47.6751 25.6272 41.7251 24.0271Z" fill="#28A745"/>
<path d="M31.976 0.202148H18.026C6.97607 0.202148 6.97607 6.07717 6.97607 11.2522V20.5022C7.07607 20.4522 7.20107 20.4272 7.30107 20.4022C9.05107 19.9272 11.0261 19.7022 13.3761 19.7022C17.226 19.7022 19.051 20.8272 20.851 22.2022C21.101 22.3772 21.351 22.6022 21.576 22.8522L23.926 25.3272C24.176 25.6022 24.576 25.7522 25.001 25.7522C25.426 25.7522 25.826 25.6022 26.051 25.3522L28.451 22.8272C28.651 22.6272 28.876 22.4022 29.126 22.2272C30.976 20.8272 32.776 19.7022 36.626 19.7022C38.976 19.7022 40.951 19.9272 42.701 20.4022C42.801 20.4272 42.926 20.4522 43.026 20.5022V11.2522C43.026 6.07717 43.026 0.202148 31.976 0.202148ZM28.876 16.4522H21.126C20.176 16.4522 19.376 15.6522 19.376 14.7022C19.376 13.7272 20.176 12.9522 21.126 12.9522H28.876C29.826 12.9522 30.626 13.7272 30.626 14.7022C30.626 15.6522 29.826 16.4522 28.876 16.4522ZM30.826 9.47718H19.176C18.226 9.47718 17.451 8.67718 17.451 7.72717C17.451 6.75217 18.226 5.97717 19.176 5.97717H30.826C31.776 5.97717 32.551 6.75217 32.551 7.72717C32.551 8.67718 31.776 9.47718 30.826 9.47718Z" fill="#28A745"/>
</svg>
