<svg width="50" height="51" viewBox="0 0 50 51" fill="none" xmlns="http://www.w3.org/2000/svg">
<path fill-rule="evenodd" clip-rule="evenodd" d="M10.8904 0.207522H11.1315C13.2141 0.207453 14.951 0.207406 16.3297 0.392784C17.785 0.58843 19.0989 1.01883 20.1546 2.07465C21.2105 3.13047 21.641 4.44436 21.8366 5.89965C22.0221 7.27838 22.0218 9.01511 22.0218 11.0978V11.339C22.0218 13.4217 22.0221 15.1585 21.8366 16.5372C21.641 17.9925 21.2105 19.3064 20.1546 20.3621C19.0989 21.418 17.785 21.8485 16.3297 22.0441C14.951 22.2296 13.2142 22.2293 11.1315 22.2293H10.8904C8.80768 22.2293 7.07086 22.2296 5.69213 22.0441C4.23684 21.8485 2.92294 21.418 1.86713 20.3621C0.811308 19.3064 0.380909 17.9925 0.185263 16.5372C-9.11395e-05 15.1585 -4.48955e-05 13.4218 1.46618e-06 11.3392V11.0979C-4.48955e-05 9.01525 -9.11395e-05 7.27836 0.185263 5.89965C0.380909 4.44436 0.811308 3.13047 1.86713 2.07465C2.92294 1.01883 4.23684 0.58843 5.69213 0.392784C7.07083 0.207406 8.80773 0.207453 10.8904 0.207522ZM9.38827 7.7413C8.36407 7.7413 7.5338 8.57159 7.5338 9.59577V12.8411C7.5338 13.8653 8.36407 14.6956 9.38827 14.6956H12.6336C13.6578 14.6956 14.4881 13.8653 14.4881 12.8411V9.59577C14.4881 8.57159 13.6578 7.7413 12.6336 7.7413H9.38827Z" fill="#0A3F4D"/>
<path fill-rule="evenodd" clip-rule="evenodd" d="M36.6305 0.207522H36.3894C34.3068 0.207453 32.5699 0.207406 31.1911 0.392784C29.7358 0.58843 28.4219 1.01883 27.3662 2.07465C26.3104 3.13047 25.8799 4.44436 25.6842 5.89965C25.4988 7.2784 25.499 9.01516 25.499 11.0979V11.339C25.499 13.4217 25.4988 15.1585 25.6842 16.5372C25.8799 17.9925 26.3104 19.3064 27.3662 20.3621C28.4219 21.418 29.7358 21.8485 31.1911 22.0441C32.5699 22.2296 34.3066 22.2293 36.3894 22.2293H36.6305C38.7133 22.2293 40.45 22.2296 41.8288 22.0441C43.2841 21.8485 44.598 21.418 45.6536 20.3621C46.7095 19.3064 47.14 17.9925 47.3356 16.5372C47.5211 15.1586 47.5208 13.4217 47.5208 11.3392V11.0976C47.5208 9.01509 47.5211 7.27829 47.3356 5.89965C47.14 4.44436 46.7095 3.13047 45.6536 2.07465C44.598 1.01883 43.2841 0.58843 41.8288 0.392784C40.45 0.207406 38.713 0.207453 36.6305 0.207522ZM33.0328 9.59577C33.0328 8.57159 33.8631 7.7413 34.8873 7.7413H38.1326C39.1567 7.7413 39.9871 8.57159 39.9871 9.59577V12.8411C39.9871 13.8653 39.1567 14.6956 38.1326 14.6956H34.8873C33.8631 14.6956 33.0328 13.8653 33.0328 12.8411V9.59577Z" fill="#0A3F4D"/>
<path fill-rule="evenodd" clip-rule="evenodd" d="M10.8904 25.7065H11.1315C13.2142 25.7065 14.951 25.7065 16.3297 25.8918C17.785 26.0874 19.0989 26.5179 20.1546 27.5738C21.2105 28.6294 21.641 29.9433 21.8366 31.3986C22.0221 32.7774 22.0218 34.5141 22.0218 36.5969V36.838C22.0218 38.9208 22.0221 40.6575 21.8366 42.0363C21.641 43.4916 21.2105 44.8055 20.1546 45.8611C19.0989 46.917 17.785 47.3475 16.3297 47.5431C14.9511 47.7286 13.2146 47.7284 11.1322 47.7284H10.8904C8.80796 47.7284 7.07072 47.7286 5.69213 47.5431C4.23684 47.3475 2.92294 46.917 1.86713 45.8611C0.811308 44.8055 0.380909 43.4916 0.185263 42.0363C-9.11395e-05 40.6575 -4.48955e-05 38.9208 1.46618e-06 36.8382V36.5969C-4.48955e-05 34.5143 -9.11395e-05 32.7774 0.185263 31.3986C0.380909 29.9433 0.811308 28.6294 1.86713 27.5738C2.92294 26.5179 4.23684 26.0874 5.69213 25.8918C7.07088 25.7065 8.80763 25.7065 10.8904 25.7065ZM7.5338 35.0948C7.5338 34.0707 8.36407 33.2403 9.38827 33.2403H12.6336C13.6578 33.2403 14.4881 34.0707 14.4881 35.0948V38.3401C14.4881 39.3642 13.6578 40.1946 12.6336 40.1946H9.38827C8.36407 40.1946 7.5338 39.3642 7.5338 38.3401V35.0948Z" fill="#0A3F4D"/>
<path d="M37.6323 25.4722C30.8177 25.4722 25.2646 31.0252 25.2646 37.8398C25.2646 44.6543 30.8177 50.2074 37.6323 50.2074C44.4468 50.2074 49.9999 44.6543 49.9999 37.8398C49.9999 31.0252 44.4468 25.4722 37.6323 25.4722ZM41.7878 40.6843C42.1464 41.043 42.1464 41.6366 41.7878 41.9953C41.6023 42.1808 41.3673 42.2674 41.1323 42.2674C40.8973 42.2674 40.6623 42.1808 40.4768 41.9953L37.6323 39.1507L34.7877 41.9953C34.6022 42.1808 34.3672 42.2674 34.1322 42.2674C33.8972 42.2674 33.6623 42.1808 33.4767 41.9953C33.1181 41.6366 33.1181 41.043 33.4767 40.6843L36.3213 37.8398L33.4767 34.9952C33.1181 34.6366 33.1181 34.0429 33.4767 33.6843C33.8354 33.3256 34.429 33.3256 34.7877 33.6843L37.6323 36.5288L40.4768 33.6843C40.8355 33.3256 41.4291 33.3256 41.7878 33.6843C42.1464 34.0429 42.1464 34.6366 41.7878 34.9952L38.9432 37.8398L41.7878 40.6843Z" fill="#DC3545"/>
</svg>
