<svg width="50" height="51" viewBox="0 0 50 51" fill="none" xmlns="http://www.w3.org/2000/svg">
<path d="M18.7503 4.37939C13.292 4.37939 8.85449 8.81689 8.85449 14.2752C8.85449 19.6294 13.042 23.9627 18.5003 24.1502C18.667 24.1294 18.8337 24.1294 18.9587 24.1502C19.0003 24.1502 19.0212 24.1502 19.0628 24.1502C19.0837 24.1502 19.0837 24.1502 19.1045 24.1502C24.4378 23.9627 28.6253 19.6294 28.6462 14.2752C28.6462 8.81689 24.2087 4.37939 18.7503 4.37939Z" fill="#0A3F4D"/>
<path d="M29.333 29.6919C23.5205 25.8169 14.0413 25.8169 8.18717 29.6919C5.54134 31.4627 4.08301 33.8586 4.08301 36.4211C4.08301 38.9836 5.54134 41.3586 8.16634 43.1086C11.083 45.0669 14.9163 46.0461 18.7497 46.0461C22.583 46.0461 26.4163 45.0669 29.333 43.1086C31.958 41.3377 33.4163 38.9627 33.4163 36.3794C33.3955 33.8169 31.958 31.4419 29.333 29.6919Z" fill="#0A3F4D"/>
<path d="M41.6455 15.5046C41.9788 19.5463 39.1038 23.0879 35.1247 23.5671C35.1038 23.5671 35.1038 23.5671 35.083 23.5671H35.0205C34.8955 23.5671 34.7705 23.5671 34.6663 23.6088C32.6455 23.7129 30.7913 23.0671 29.3955 21.8796C31.5413 19.9629 32.7705 17.0879 32.5205 13.9629C32.3747 12.2754 31.7913 10.7338 30.9163 9.42127C31.708 9.02544 32.6247 8.77544 33.5622 8.6921C37.6455 8.33794 41.2913 11.3796 41.6455 15.5046Z" fill="#0A3F4D"/>
<path d="M45.8122 34.7756C45.6455 36.7964 44.3538 38.5464 42.1872 39.7339C40.1038 40.8797 37.4788 41.4214 34.8747 41.3589C36.3747 40.0047 37.2497 38.3172 37.4163 36.5256C37.6247 33.9422 36.3955 31.4631 33.9372 29.4839C32.5413 28.3797 30.9163 27.5047 29.1455 26.8589C33.7497 25.5256 39.5413 26.4214 43.1038 29.2964C45.0205 30.8381 45.9997 32.7756 45.8122 34.7756Z" fill="#0A3F4D"/>
</svg>
