<svg width="50" height="51" viewBox="0 0 50 51" fill="none" xmlns="http://www.w3.org/2000/svg">
<path fill-rule="evenodd" clip-rule="evenodd" d="M11.3205 0.207522H11.5711C13.736 0.20745 15.5415 0.207402 16.9747 0.400101C18.4874 0.603474 19.8532 1.05087 20.9506 2.14839C22.0482 3.24591 22.4957 4.61169 22.6991 6.12446C22.8918 7.55764 22.8916 9.36297 22.8916 11.528V11.7786C22.8916 13.9436 22.8918 15.749 22.6991 17.1822C22.4957 18.6949 22.0482 20.0607 20.9506 21.1581C19.8532 22.2557 18.4874 22.7032 16.9747 22.9066C15.5415 23.0993 13.7361 23.0991 11.5712 23.0991H11.3205C9.15554 23.0991 7.35012 23.0993 5.91694 22.9066C4.40417 22.7032 3.03839 22.2557 1.94087 21.1581C0.843351 20.0607 0.395953 18.6949 0.19258 17.1822C-9.4739e-05 15.749 -4.66687e-05 13.9437 1.52409e-06 11.7788V11.528C-4.66687e-05 9.36311 -9.4739e-05 7.55762 0.19258 6.12446C0.395953 4.61169 0.843351 3.24591 1.94087 2.14839C3.03839 1.05087 4.40417 0.603474 5.91694 0.400101C7.3501 0.207402 9.15559 0.20745 11.3205 0.207522ZM9.75906 8.03885C8.69441 8.03885 7.83135 8.90193 7.83135 9.96656V13.3401C7.83135 14.4047 8.69441 15.2678 9.75906 15.2678H13.1326C14.1972 15.2678 15.0603 14.4047 15.0603 13.3401V9.96656C15.0603 8.90193 14.1972 8.03885 13.1326 8.03885H9.75906Z" fill="#0A3F4D"/>
<path fill-rule="evenodd" clip-rule="evenodd" d="M11.3205 26.7134H11.5711C13.7361 26.7134 15.5415 26.7134 16.9747 26.9059C18.4874 27.1093 19.8532 27.5568 20.9506 28.6543C22.0482 29.7517 22.4957 31.1175 22.6991 32.6302C22.8918 34.0635 22.8916 35.8688 22.8916 38.0339V38.2845C22.8916 40.4495 22.8918 42.2548 22.6991 43.6881C22.4957 45.2009 22.0482 46.5666 20.9506 47.664C19.8532 48.7616 18.4874 49.209 16.9747 49.4124C15.5416 49.6052 13.7365 49.6049 11.5719 49.6049H11.3205C9.15583 49.6049 7.34998 49.6052 5.91694 49.4124C4.40417 49.209 3.03839 48.7616 1.94087 47.664C0.843351 46.5666 0.395953 45.2009 0.19258 43.6881C-9.4739e-05 42.2548 -4.66687e-05 40.4495 1.52409e-06 38.2847V38.0339C-4.66687e-05 35.869 -9.4739e-05 34.0635 0.19258 32.6302C0.395953 31.1175 0.843351 29.7517 1.94087 28.6543C3.03839 27.5568 4.40417 27.1093 5.91694 26.9059C7.35014 26.7134 9.15549 26.7134 11.3205 26.7134ZM7.83135 36.4724C7.83135 35.4078 8.69441 34.5447 9.75906 34.5447H13.1326C14.1972 34.5447 15.0603 35.4078 15.0603 36.4724V39.8459C15.0603 40.9105 14.1972 41.7736 13.1326 41.7736H9.75906C8.69441 41.7736 7.83135 40.9105 7.83135 39.8459V36.4724Z" fill="#0A3F4D"/>
<path fill-rule="evenodd" clip-rule="evenodd" d="M38.0769 0.207522H37.8263C35.6615 0.20745 33.856 0.207402 32.4227 0.400101C30.91 0.603474 29.5442 1.05087 28.4468 2.14839C27.3492 3.24591 26.9018 4.61169 26.6984 6.12446C26.5056 7.55767 26.5059 9.36302 26.5059 11.528V11.7786C26.5059 13.9436 26.5056 15.749 26.6984 17.1822C26.9018 18.6949 27.3492 20.0607 28.4468 21.1581C29.5442 22.2557 30.91 22.7032 32.4227 22.9066C33.856 23.0993 35.6613 23.0991 37.8263 23.0991H38.0769C40.242 23.0991 42.0473 23.0993 43.4806 22.9066C44.9933 22.7032 46.3591 22.2557 47.4565 21.1581C48.554 20.0607 49.0015 18.6949 49.2049 17.1822C49.3977 15.7491 49.3974 13.9436 49.3974 11.7788V11.5277C49.3974 9.36294 49.3977 7.55755 49.2049 6.12446C49.0015 4.61169 48.554 3.24591 47.4565 2.14839C46.3591 1.05087 44.9933 0.603474 43.4806 0.400101C42.0473 0.207402 40.2418 0.20745 38.0769 0.207522ZM34.3372 9.96656C34.3372 8.90193 35.2003 8.03885 36.2649 8.03885H39.6384C40.703 8.03885 41.5661 8.90193 41.5661 9.96656V13.3401C41.5661 14.4047 40.703 15.2678 39.6384 15.2678H36.2649C35.2003 15.2678 34.3372 14.4047 34.3372 13.3401V9.96656Z" fill="#0A3F4D"/>
<path d="M35.4653 26.1113H35.5424V30.9306C34.3867 30.9306 33.6404 30.9318 33.0696 30.9708C32.5202 31.0084 32.3108 31.0725 32.2106 31.114C31.6202 31.3586 31.151 31.8277 30.9065 32.4181C30.865 32.5183 30.8009 32.7277 30.7633 33.2771C30.7243 33.848 30.7231 34.5942 30.7231 35.7499H25.9038V35.6728C25.9038 34.6159 25.9038 33.7039 25.9554 32.9489C26.0096 32.1542 26.1289 31.3593 26.4542 30.574C27.1877 28.8027 28.5951 27.3952 30.3665 26.6617C31.1518 26.3364 31.9467 26.2171 32.7414 26.1629C33.4963 26.1113 34.4084 26.1113 35.4653 26.1113Z" fill="#0A3F4D"/>
<path d="M42.8341 30.9708C42.2633 30.9318 41.517 30.9306 40.3613 30.9306V26.1113H40.4384C41.4953 26.1113 42.4073 26.1113 43.1623 26.1629C43.957 26.2171 44.7519 26.3364 45.5375 26.6617C47.3086 27.3952 48.716 28.8027 49.4495 30.574C49.7748 31.3593 49.8941 32.1542 49.9486 32.9489C49.9999 33.7039 49.9999 34.6157 49.9999 35.6728V35.7499H45.1806C45.1806 34.5942 45.1794 33.848 45.1404 33.2771C45.1028 32.7277 45.0387 32.5183 44.9972 32.4181C44.7527 31.8277 44.2835 31.3586 43.6931 31.114C43.5929 31.0725 43.3835 31.0084 42.8341 30.9708Z" fill="#0A3F4D"/>
<path d="M25.9038 40.646V40.5688H30.7231C30.7231 41.7245 30.7243 42.4708 30.7633 43.0416C30.8009 43.591 30.865 43.8004 30.9065 43.9007C31.151 44.491 31.6202 44.9602 32.2106 45.2048C32.3108 45.2462 32.5202 45.3103 33.0696 45.3479C33.6404 45.3869 34.3867 45.3881 35.5424 45.3881V50.2074H35.4653C34.4084 50.2074 33.4963 50.2074 32.7414 50.1561C31.9467 50.1016 31.1518 49.9823 30.3665 49.657C28.5951 48.9235 27.1877 47.5161 26.4542 45.745C26.1289 44.9594 26.0096 44.1645 25.9554 43.3698C25.9038 42.6149 25.9038 41.7028 25.9038 40.646Z" fill="#0A3F4D"/>
<path d="M45.1404 43.0416C45.1794 42.4708 45.1806 41.7245 45.1806 40.5688H49.9999V40.646C49.9999 41.7028 49.9999 42.6149 49.9486 43.3698C49.8941 44.1645 49.7748 44.9594 49.4495 45.745C48.716 47.5161 47.3086 48.9235 45.5375 49.657C44.7519 49.9823 43.957 50.1016 43.1623 50.1561C42.4073 50.2074 41.4955 50.2074 40.4384 50.2074H40.3613V45.3881C41.517 45.3881 42.2633 45.3869 42.8341 45.3479C43.3835 45.3103 43.5929 45.2462 43.6931 45.2048C44.2835 44.9602 44.7527 44.491 44.9972 43.9007C45.0387 43.8004 45.1028 43.591 45.1404 43.0416Z" fill="#0A3F4D"/>
<path d="M34.3374 36.4726C34.3374 35.4081 35.2005 34.5449 36.2651 34.5449H39.6386C40.7032 34.5449 41.5663 35.4081 41.5663 36.4726V39.8461C41.5663 40.9107 40.7032 41.7738 39.6386 41.7738H36.2651C35.2005 41.7738 34.3374 40.9107 34.3374 39.8461V36.4726Z" fill="#0A3F4D"/>
</svg>
