<svg width="50" height="51" viewBox="0 0 50 51" fill="none" xmlns="http://www.w3.org/2000/svg">
<path d="M1.925 21.207C0.85 21.207 0 20.3145 0 19.1858V13.122C0 6.00828 5.525 0.207031 12.3 0.207031H18.075C19.15 0.207031 20 1.09953 20 2.22828C20 3.35703 19.15 4.24953 18.075 4.24953H12.3C7.625 4.24953 3.85 8.23953 3.85 13.122V19.1858C3.85 20.3145 2.975 21.207 1.925 21.207Z" fill="#C32C0E"/>
<path d="M48.075 21.207C47.025 21.207 46.15 20.3145 46.15 19.1858V13.122C46.15 8.21328 42.35 4.24953 37.7 4.24953H31.925C30.85 4.24953 30 3.33078 30 2.22828C30 1.12578 30.85 0.207031 31.925 0.207031H37.7C44.475 0.207031 50 6.00828 50 13.122V19.1858C50 20.3145 49.15 21.207 48.075 21.207Z" fill="#C32C0E"/>
<path d="M37.4915 50.207H33.9576C32.8898 50.207 32 49.3414 32 48.2466C32 47.1773 32.8644 46.2862 33.9576 46.2862H37.4915C42.2458 46.2862 46.0847 42.4164 46.0847 37.6809V34.1674C46.0847 33.0981 46.9492 32.207 48.0424 32.207C49.1102 32.207 50 33.0727 50 34.1674V37.6809C50 44.5804 44.3814 50.207 37.4915 50.207Z" fill="#C32C0E"/>
<path d="M18.075 50.207H12.3C5.525 50.207 0 44.682 0 37.907V32.132C0 31.057 0.85 30.207 1.925 30.207C3 30.207 3.85 31.057 3.85 32.132V37.907C3.85 42.582 7.65 46.357 12.3 46.357H18.075C19.125 46.357 20 47.207 20 48.282C20 49.357 19.15 50.207 18.075 50.207Z" fill="#C32C0E"/>
<path d="M41.083 24.207H37.6971H12.3029H8.91701C7.84647 24.207 7 25.1161 7 26.207C7 27.2979 7.84647 28.207 8.91701 28.207H12.3029H37.6971H41.083C42.1535 28.207 43 27.2979 43 26.207C43 25.1161 42.1535 24.207 41.083 24.207Z" fill="#C32C0E"/>
<path d="M13 29.7409V30.5799C13 34.8003 16.2843 38.207 20.3529 38.207H30.6471C34.7157 38.207 38 34.8003 38 30.5799V29.7409C38 29.4358 37.7794 29.207 37.4853 29.207H13.5147C13.2206 29.207 13 29.4358 13 29.7409Z" fill="#C32C0E"/>
<path d="M13 20.6731V19.8341C13 15.6138 16.2843 12.207 20.3529 12.207H30.6471C34.7157 12.207 38 15.6138 38 19.8341V20.6731C38 20.9782 37.7794 21.207 37.4853 21.207H13.5147C13.2206 21.207 13 20.9782 13 20.6731Z" fill="#C32C0E"/>
</svg>
