<svg width="71" height="71" viewBox="0 0 71 71" fill="none" xmlns="http://www.w3.org/2000/svg">
<path d="M8.84277 62.9791C9.45538 63.8527 10.2504 64.5829 11.1728 65.1191C12.2763 65.7621 13.5306 66.1009 14.8078 66.1009C16.085 66.1009 17.3393 65.7621 18.4428 65.1191L47.2528 48.4891L35.6128 37.3491L8.84277 62.9791Z" fill="#F7F6F5"/>
<path d="M7.54199 58.6892L32.722 34.5792L7.54199 10.4692V58.6892Z" fill="#F7F6F5"/>
<path d="M60.432 40.8693C61.5394 40.2345 62.4597 39.3186 63.0996 38.2141C63.7396 37.1096 64.0766 35.8558 64.0766 34.5793C64.0766 33.3028 63.7396 32.0489 63.0996 30.9445C62.4597 29.84 61.5394 28.9241 60.432 28.2893L50.852 22.7593L38.502 34.5793L50.852 46.3993L60.432 40.8693Z" fill="#F7F6F5"/>
<path d="M14.8128 3.05908C13.5324 3.06468 12.2763 3.40974 11.1728 4.05908C10.2504 4.59535 9.45538 5.3255 8.84277 6.19908L35.6128 31.8091L47.2528 20.6691L18.4428 4.03908C17.3404 3.398 16.088 3.0599 14.8128 3.05908Z" fill="#F7F6F5"/>
</svg>
