<svg width="50" height="51" viewBox="0 0 50 51" fill="none" xmlns="http://www.w3.org/2000/svg">
<path d="M32.6082 20.5506H8.67908C7.2671 20.5506 5.91373 21.1122 4.9168 22.1137C3.91981 23.1129 3.36271 24.4685 3.36721 25.8805V39.9778C3.3627 42.9167 5.74235 45.3032 8.67908 45.31H26.1936C24.9869 41.577 25.65 37.4899 27.9732 34.3296C30.2965 31.1673 34.0004 29.3155 37.9223 29.3515V25.8802C37.9268 24.4682 37.3697 23.1126 36.3727 22.1134C35.3757 21.1119 34.0225 20.5506 32.6082 20.5506ZM20.6445 34.738C19.6701 34.7041 18.8965 33.9057 18.8965 32.929C18.8965 31.9546 19.6701 31.1539 20.6445 31.1223C21.6189 31.1539 22.3926 31.9546 22.3926 32.929C22.3926 33.9057 21.6189 34.7041 20.6445 34.738ZM26.7526 2.5308C25.0023 0.958642 22.7083 0.126339 20.3581 0.207583C18.0056 0.291038 15.777 1.28125 14.1375 2.97069C12.5 4.66012 11.5797 6.91792 11.5729 9.27273V16.9352H15.1886L15.1863 9.327C15.1412 7.86311 15.7029 6.44437 16.7404 5.40905C17.778 4.37597 19.199 3.81662 20.6629 3.86847C22.1177 3.81885 23.5274 4.37372 24.5583 5.39998C25.5891 6.42849 26.1484 7.83603 26.1033 9.29086V16.9348H29.719L29.7168 9.2002C29.719 6.65819 28.6408 4.2334 26.7529 2.53034L26.7526 2.5308ZM29.2111 41.5678C29.572 53.0262 46.2545 53.1342 46.6333 41.5678C46.2724 30.0914 29.5899 30.0914 29.2111 41.5678ZM41.7182 41.3693L38.7363 44.3512C38.0258 45.0572 36.88 45.0572 36.1695 44.3512L34.1259 42.3098C33.4425 41.6016 33.4492 40.476 34.1439 39.7768C34.8364 39.0799 35.9619 39.0641 36.6747 39.743L37.4529 40.5212L39.1694 38.8228C39.8754 38.1371 41.0009 38.1483 41.6956 38.8431C42.3926 39.5378 42.4017 40.6632 41.7182 41.3693Z" fill="#0A3F4D"/>
</svg>
