<svg width="71" height="72" viewBox="0 0 71 72" fill="none" xmlns="http://www.w3.org/2000/svg">
<path d="M35.5 3.90527C18.0993 3.90527 4 18.0046 4 35.4053C4 52.806 18.0993 66.9053 35.5 66.9053C52.9007 66.9053 67 52.806 67 35.4053C67 18.0046 52.9007 3.90527 35.5 3.90527ZM23.5512 48.8685C23.1423 49.5651 22.4154 49.9437 21.6582 49.9437C21.2796 49.9437 20.901 49.8529 20.5526 49.6408C19.5077 49.0351 19.1594 47.7024 19.7651 46.6574L21.9156 43.0834C22.1428 42.7048 22.5365 42.4776 22.9757 42.4776H23.2937C24.8536 42.4776 25.944 43.4166 26.262 44.3252L23.5512 48.8685ZM41.7546 41.8416L27.6704 41.8567H18.3113C17.0695 41.8567 16.07 40.8269 16.1305 39.5851C16.176 38.4038 17.2058 37.5103 18.387 37.5103H25.1716L33.2132 23.8199L30.6084 19.3827C30.0178 18.368 30.2752 17.0353 31.2748 16.3993C32.3349 15.7178 33.7281 16.0661 34.349 17.1262L35.7423 19.5038H35.7575L37.1507 17.1262C37.7716 16.0661 39.18 15.7178 40.225 16.3993C41.2245 17.0353 41.482 18.368 40.8913 19.3827L38.2865 23.8199L35.7575 28.136L30.2601 37.5103V37.5255H38.3623C39.3769 37.5255 40.649 38.0707 41.1639 38.949L41.2094 39.0399C41.6637 39.8122 41.9212 40.3423 41.9212 41.1146C41.906 41.5387 41.7546 41.8416 41.7546 41.8416ZM52.6887 41.8567H48.8724V41.8719L51.6589 46.612C52.2647 47.6418 51.9769 49.0048 50.932 49.6408C50.5836 49.8529 50.1899 49.9589 49.7962 49.9589C49.0389 49.9589 48.312 49.5651 47.9031 48.8836L43.7839 41.8719L41.2245 37.5103L37.9231 31.8615C36.9538 30.2108 36.9084 28.1512 37.8322 26.5156C38.4834 25.3646 38.9832 25.0618 38.9832 25.0618L46.3281 37.4952H52.6433C53.8245 37.4952 54.8392 38.4038 54.8998 39.5699C54.9452 40.8269 53.9457 41.8567 52.6887 41.8567Z" fill="#F7F6F5"/>
</svg>
