<svg width="50" height="51" viewBox="0 0 50 51" fill="none" xmlns="http://www.w3.org/2000/svg">
<path d="M35.4932 0.212891H14.5327C5.42819 0.212891 0.000488281 5.63789 0.000488281 14.7379V35.6629C0.000488281 44.7879 5.42819 50.2129 14.5327 50.2129H35.4682C44.5727 50.2129 50.0004 44.7879 50.0004 35.6879V14.7379C50.0254 5.63789 44.5977 0.212891 35.4932 0.212891ZM38.8448 14.0379L19.5352 33.3379H27.089C28.1145 33.3379 28.9649 34.1879 28.9649 35.2129C28.9649 36.2379 28.1145 37.0879 27.089 37.0879H15.008C13.9825 37.0879 13.132 36.2379 13.132 35.2129V23.1379C13.132 22.1129 13.9825 21.2629 15.008 21.2629C16.0335 21.2629 16.8839 22.1129 16.8839 23.1379V30.6879L36.1935 11.3879C36.5687 11.0129 37.0439 10.8379 37.5192 10.8379C37.9944 10.8379 38.4697 11.0129 38.8448 11.3879C39.5702 12.1129 39.5702 13.3129 38.8448 14.0379Z" fill="#C32C0E"/>
</svg>
