<svg width="50" height="51" viewBox="0 0 50 51" fill="none" xmlns="http://www.w3.org/2000/svg">
<path d="M11.9046 25.0107C5.33325 25.0107 0 30.3202 0 36.9153C0 43.5105 5.33325 48.8199 11.9046 48.8199C18.4759 48.8199 23.8092 43.4867 23.8092 36.9153C23.8092 30.344 18.4997 25.0107 11.9046 25.0107ZM7.04751 32.0583H11.9046C12.8093 32.0583 13.5236 32.7963 13.5236 33.6773C13.5236 34.5582 12.8093 35.2963 11.9046 35.2963H7.04751C6.14277 35.2963 5.42849 34.5582 5.42849 33.6773C5.42849 32.7963 6.14277 32.0583 7.04751 32.0583ZM16.7617 41.7724H7.04751C6.14277 41.7724 5.42849 41.0343 5.42849 40.1534C5.42849 39.2724 6.16658 38.5344 7.04751 38.5344H16.7855C17.6902 38.5344 18.4045 39.2724 18.4045 40.1534C18.4045 41.0343 17.6664 41.7724 16.7617 41.7724Z" fill="#C32C0E"/>
<path d="M38.0956 1.20215H14.2864C7.14367 1.20215 2.38184 4.77352 2.38184 13.1067V20.5828C2.38184 22.3209 4.16752 23.4161 5.76274 22.7256C8.38175 21.5828 11.3579 21.1542 14.4769 21.6542C20.7149 22.678 25.8101 27.6065 27.0719 33.7969C27.4291 35.6064 27.4767 37.3683 27.2386 39.0587C27.0481 40.4635 28.191 41.7015 29.5957 41.7015H38.0956C45.2383 41.7015 50.0002 38.1302 50.0002 29.797V13.1067C50.0002 4.77352 45.2383 1.20215 38.0956 1.20215ZM39.2146 14.5115L31.7624 20.4638C30.1909 21.7257 28.191 22.3447 26.191 22.3447C24.191 22.3447 22.1673 21.7257 20.6197 20.4638L13.1674 14.5115C12.4055 13.8924 12.2865 12.7496 12.8817 11.9877C13.5007 11.2258 14.6197 11.083 15.3816 11.702L22.8339 17.6543C24.6434 19.1066 27.7148 19.1066 29.5243 17.6543L36.9766 11.702C37.7385 11.083 38.8813 11.202 39.4765 11.9877C40.0956 12.7496 39.9765 13.8924 39.2146 14.5115Z" fill="#C32C0E"/>
</svg>
