<svg width="50" height="51" viewBox="0 0 50 51" fill="none" xmlns="http://www.w3.org/2000/svg">
<path d="M25 0.212891C11.225 0.212891 0 11.4379 0 25.2129C0 38.9879 11.225 50.2129 25 50.2129C38.775 50.2129 50 38.9879 50 25.2129C50 11.4379 38.775 0.212891 25 0.212891ZM36.95 19.4629L22.775 33.6379C22.425 33.9879 21.95 34.1879 21.45 34.1879C20.95 34.1879 20.475 33.9879 20.125 33.6379L13.05 26.5629C12.325 25.8379 12.325 24.6379 13.05 23.9129C13.775 23.1879 14.975 23.1879 15.7 23.9129L21.45 29.6629L34.3 16.8129C35.025 16.0879 36.225 16.0879 36.95 16.8129C37.675 17.5379 37.675 18.7129 36.95 19.4629Z" fill="#28A745"/>
</svg>
