<svg width="16" height="16" viewBox="0 0 16 16" fill="none" xmlns="http://www.w3.org/2000/svg">
<path d="M7.40297 0.000454687C9.09263 0.00883987 10.4922 0.633513 11.6017 1.87437C12.0267 2.34982 12.4481 2.87067 12.7696 3.40924C11.5361 4.88451 10.2283 6.44891 9.40038 7.43912C8.99138 6.79567 8.56305 6.164 8.1158 5.54542C7.56743 4.77987 6.47954 4.62924 5.74542 5.2185C5.03098 5.78864 4.91287 6.83148 5.48151 7.54781C6.37124 8.6621 7.18069 9.84185 7.93695 11.0547C8.50852 11.939 9.85383 11.9447 10.4306 11.0587L13.9623 5.77706C14.0805 5.8389 14.206 5.91525 14.3386 6.00614C14.7587 6.28134 15.1045 6.57086 15.3761 6.87461C15.6419 7.17189 15.8499 7.46285 16 7.74754C15.8796 8.62499 15.6365 9.39123 15.2708 10.0462C14.7673 10.9883 13.9816 11.9391 12.9138 12.8988C11.132 14.5001 9.2817 15.2659 7.36266 15.1956C5.41208 15.1419 3.65946 14.2457 2.10511 12.5072C0.54499 10.7622 -0.147906 8.89061 0.0262303 6.89247C0.180307 5.0406 1.02601 3.42386 2.56336 2.0422C4.10073 0.660524 5.71395 -0.0201649 7.40297 0.000454687Z" fill="#0A3F4D"/>
</svg>
