<svg width="2121" height="2341" viewBox="0 0 2121 2341" fill="none" xmlns="http://www.w3.org/2000/svg">
<path d="M1934.78 693.179C2136.9 857.127 2180.78 1137.93 2032.8 1320.38C2026.76 1327.81 2020.45 1334.97 2013.98 1341.86L2014 1341.87C1768.28 1602.58 1764.7 1642.89 1760.38 1936.56C1759.84 2007.58 1737.21 2076.92 1690.83 2134.1C1605.99 2238.69 1464.9 2273.96 1332.63 2236.46C1061.75 2164.72 1019.06 2157.07 707.837 2297.75C551.307 2372.58 348.186 2349.2 192.165 2222.65C5.29733 2071.07 -50.689 1822.83 49.1034 1637.2C268.859 1210.93 251.426 1154.65 158.379 772.227L158.402 772.246C134.282 672.904 152.524 568.434 217.752 488.018C322.751 358.572 513.866 335.338 667.863 424.765C1022.65 623.838 1074.23 652.437 1558.63 583.835L1558.61 583.856C1684.28 566.103 1822.2 601.86 1934.78 693.179Z" fill="#0A3F4D"/>
<path d="M1700.02 780.733C1763.49 781.048 1816.06 804.537 1857.73 851.197C1873.7 869.074 1889.53 888.66 1901.6 908.911C1855.27 964.385 1806.14 1023.21 1775.05 1060.44C1759.68 1036.25 1743.59 1012.5 1726.79 989.237C1706.2 960.45 1665.33 954.786 1637.76 976.944C1610.92 998.382 1606.48 1037.6 1627.84 1064.53C1661.26 1106.43 1691.67 1150.79 1720.08 1196.4C1741.54 1229.65 1792.08 1229.87 1813.74 1196.55L1946.4 997.947C1950.84 1000.27 1955.56 1003.14 1960.54 1006.56C1976.32 1016.91 1989.31 1027.8 1999.51 1039.22C2009.49 1050.4 2017.3 1061.34 2022.94 1072.04C2018.42 1105.04 2009.29 1133.85 1995.55 1158.48C1976.64 1193.9 1947.13 1229.66 1907.02 1265.74C1840.09 1325.96 1770.59 1354.75 1698.5 1352.11C1625.23 1350.09 1559.4 1316.39 1501.02 1251.02C1442.41 1185.4 1416.39 1115.02 1422.93 1039.89C1428.72 970.254 1460.48 909.461 1518.23 857.507C1575.98 805.553 1636.57 779.958 1700.02 780.733Z" fill="white"/>
<path d="M634.018 0.359627C697.485 0.674929 750.058 24.1641 791.731 70.8234C807.698 88.7012 823.526 108.287 835.6 128.538C789.269 184.012 740.143 242.837 709.045 280.071C693.682 255.876 677.593 232.123 660.793 208.864C640.195 180.077 599.331 174.413 571.756 196.57C544.92 218.009 540.483 257.223 561.843 284.158C595.263 326.058 625.668 370.42 654.075 416.024C675.545 449.277 726.078 449.492 747.743 416.176L880.402 217.574C884.844 219.899 889.557 222.77 894.539 226.188C910.317 236.536 923.306 247.422 933.507 258.844C943.491 270.023 951.305 280.964 956.944 291.668C952.422 324.663 943.289 353.475 929.554 378.105C910.642 413.528 881.129 449.282 841.019 485.368C774.09 545.582 704.587 574.375 632.503 571.732C559.235 569.714 493.402 536.016 435.017 470.643C376.415 405.028 350.388 334.651 356.929 259.516C362.716 189.881 394.483 129.088 452.23 77.1339C509.977 25.1798 570.574 -0.415719 634.018 0.359627Z" fill="#0A3F4D"/>
</svg>
