<svg width="2121" height="1970" viewBox="0 0 2121 1970" fill="none" xmlns="http://www.w3.org/2000/svg">
<path d="M1934.75 322.179C2136.87 486.127 2180.75 766.93 2032.76 949.375C2026.73 956.814 2020.42 963.972 2013.95 970.855L2013.97 970.874C1768.25 1231.58 1764.67 1271.89 1760.35 1565.56C1759.81 1636.58 1737.17 1705.92 1690.79 1763.1C1605.96 1867.69 1464.87 1902.96 1332.6 1865.46C1061.71 1793.72 1019.03 1786.07 707.806 1926.75C551.276 2001.58 348.154 1978.2 192.134 1851.65C5.26583 1700.07 -50.7205 1451.83 49.0719 1266.2C268.828 839.933 251.394 783.645 158.348 401.227L158.371 401.246C134.25 301.904 152.493 197.434 217.721 117.018C322.72 -12.4276 513.834 -35.6623 667.831 53.7646C1022.62 252.838 1074.2 281.437 1558.59 212.835L1558.58 212.856C1684.25 195.103 1822.17 230.86 1934.75 322.179Z" fill="#0A3F4D"/>
</svg>
