<svg width="2505" height="3165" viewBox="0 0 2505 3165" fill="none" xmlns="http://www.w3.org/2000/svg">
<path d="M2430.46 1011.2C2103.83 1692.13 2140.91 1824.42 2387.12 2373.56C2498.71 2611.68 2428.35 2902.78 2206.85 3061.17C2042.09 3178.98 1834.89 3193.89 1661.66 3118.69C1361.85 2993.22 1314.41 2979.3 919.183 3093.08C635.43 3181.25 315.153 3083.37 132.81 2828.37C-94.7775 2510.09 -21.354 2067.68 296.813 1840.17C307.847 1832.28 319.009 1824.81 330.315 1817.64L330.294 1817.61C945.349 1428.82 1016.14 1314.23 1113.91 603.356L1113.93 603.387C1139.19 419.907 1236.9 246.807 1399.44 130.583C1713.12 -93.7214 2149.3 -21.1893 2373.68 292.613C2529.44 510.416 2542.17 787.229 2430.46 1011.2Z" fill="#0A3F4D"/>
</svg>
