<svg width="2505" height="3165" viewBox="0 0 2505 3165" fill="none" xmlns="http://www.w3.org/2000/svg">
<path d="M2430.46 1011.2C2103.83 1692.13 2140.91 1824.42 2387.12 2373.56C2498.71 2611.68 2428.35 2902.78 2206.85 3061.17C2042.09 3178.98 1834.89 3193.89 1661.66 3118.69C1361.85 2993.22 1314.41 2979.3 919.183 3093.08C635.429 3181.25 315.152 3083.37 132.81 2828.37C-94.7777 2510.09 -21.3542 2067.68 296.813 1840.17C307.847 1832.28 319.008 1824.81 330.315 1817.64L330.293 1817.61C945.349 1428.82 1016.14 1314.23 1113.91 603.356L1113.93 603.387C1139.19 419.907 1236.9 246.807 1399.44 130.583C1713.12 -93.7214 2149.3 -21.1893 2373.68 292.613C2529.44 510.416 2542.17 787.229 2430.46 1011.2Z" fill="#0A3F4D"/>
<path d="M1611.12 2585.78C1674.59 2586.09 1727.17 2609.58 1768.84 2656.24C1784.81 2674.12 1800.63 2693.71 1812.71 2713.96C1766.38 2769.43 1717.25 2828.26 1686.15 2865.49C1670.79 2841.29 1654.7 2817.54 1637.9 2794.28C1617.3 2765.5 1576.44 2759.83 1548.86 2781.99C1522.03 2803.43 1517.59 2842.64 1538.95 2869.58C1572.37 2911.48 1602.78 2955.84 1631.18 3001.44C1652.65 3034.7 1703.19 3034.91 1724.85 3001.59L1857.51 2802.99C1861.95 2805.32 1866.66 2808.19 1871.65 2811.61C1887.42 2821.95 1900.41 2832.84 1910.61 2844.26C1920.6 2855.44 1928.41 2866.38 1934.05 2877.09C1929.53 2910.08 1920.4 2938.89 1906.66 2963.52C1887.75 2998.95 1858.24 3034.7 1818.13 3070.79C1751.2 3131 1681.69 3159.79 1609.61 3157.15C1536.34 3155.13 1470.51 3121.43 1412.12 3056.06C1353.52 2990.45 1327.49 2920.07 1334.04 2844.93C1339.82 2775.3 1371.59 2714.51 1429.34 2662.55C1487.08 2610.6 1547.68 2585 1611.12 2585.78Z" fill="white"/>
</svg>
