<svg width="601" height="572" viewBox="0 0 601 572" fill="none" xmlns="http://www.w3.org/2000/svg">
<path d="M278.074 0.359382C341.542 0.674685 394.115 24.1639 435.788 70.8231C451.755 88.701 467.583 108.286 479.657 128.538C433.325 184.012 384.2 242.837 353.102 280.071C337.739 255.876 321.649 232.123 304.85 208.863C284.252 180.077 243.388 174.413 215.812 196.57C188.976 218.009 184.54 257.222 205.899 284.158C239.32 326.058 269.725 370.419 298.132 416.024C319.601 449.277 370.135 449.492 391.799 416.176L524.458 217.573C528.9 219.899 533.614 222.77 538.595 226.187C554.374 236.536 567.362 247.422 577.563 258.844C587.547 270.022 595.361 280.963 601 291.668C596.479 324.663 587.346 353.475 573.611 378.104C554.698 413.528 525.185 449.282 485.076 485.368C418.147 545.582 348.644 574.375 276.56 571.732C203.291 569.714 137.459 536.016 79.0731 470.643C20.4712 405.028 -5.55574 334.65 0.985276 259.516C6.77277 189.881 38.5395 129.088 96.286 77.1337C154.034 25.1796 214.63 -0.415963 278.074 0.359382Z" fill="#0A3F4D"/>
</svg>
