<svg width="602" height="573" viewBox="0 0 602 573" fill="none" xmlns="http://www.w3.org/2000/svg">
<path d="M278.125 0.778328C341.593 1.09363 394.166 24.5828 435.838 71.2421C451.805 89.1199 467.633 108.705 479.707 128.957C433.376 184.431 384.25 243.255 353.152 280.49C337.789 256.295 321.7 232.542 304.9 209.282C284.303 180.496 243.438 174.832 215.863 196.989C189.027 218.428 184.591 257.641 205.95 284.577C239.371 326.477 269.776 370.838 298.183 416.443C319.652 449.696 370.185 449.911 391.85 416.594L524.509 217.992C528.951 220.318 533.664 223.189 538.646 226.606C554.424 236.955 567.413 247.841 577.614 259.263C587.598 270.441 595.412 281.382 601.051 292.087C596.529 325.081 587.397 353.894 573.661 378.523C554.749 413.947 525.236 449.701 485.126 485.787C418.197 546.001 348.695 574.794 276.611 572.151C203.342 570.133 137.509 536.435 79.1239 471.062C20.522 405.446 -5.50496 335.069 1.03606 259.935C6.82355 190.3 38.5902 129.507 96.3368 77.5526C154.085 25.5985 214.681 0.0029826 278.125 0.778328Z" fill="white"/>
</svg>
